<svg width="16" height="16" viewBox="0 0 16 16" fill="none" xmlns="http://www.w3.org/2000/svg">
<path d="M8 0C3.58873 0 0 3.58873 0 8C0 12.4113 3.58873 16 8 16C12.4113 16 16 12.4113 16 8C16 3.58873 12.4113 0 8 0ZM8 14.2514C4.55291 14.2514 1.74863 11.4471 1.74863 8C1.74863 4.55308 4.55291 1.74863 8 1.74863C11.4471 1.74863 14.2514 4.55308 14.2514 8C14.2514 11.4471 11.4471 14.2514 8 14.2514Z" fill="#666666"/>
<path d="M8.69329 8.00963V4.65665C8.69329 4.28226 8.3899 3.97888 8.01566 3.97888C7.6413 3.97888 7.33789 4.28226 7.33789 4.65665V8.22615C7.33789 8.23681 7.34052 8.24681 7.34103 8.25746C7.33212 8.44176 7.39561 8.62888 7.53636 8.76965L10.0605 11.2936C10.3253 11.5584 10.7544 11.5584 11.019 11.2936C11.2835 11.0289 11.2837 10.5998 11.019 10.3352L8.69329 8.00963Z" fill="#666666"/>
</svg>
