<svg width="24" height="24" viewBox="0 0 24 24" fill="none" xmlns="http://www.w3.org/2000/svg">
<path d="M7.59088 16.0871V9.57122H6.08459V7.90146H9.66939V16.0871H7.59088Z" fill="#A2D9F6"/>
<path d="M17.4811 10.0149C17.4811 10.7272 17.0958 11.3578 16.4536 11.7081C17.3526 12.0817 17.9131 12.8641 17.9131 13.7749C17.9131 15.2462 16.6053 16.1804 14.5619 16.1804C12.5184 16.1804 11.2106 15.2579 11.2106 13.81C11.2106 12.8758 11.8178 12.0817 12.7636 11.7081C12.0746 11.3227 11.6309 10.6689 11.6309 9.95664C11.6309 8.6487 12.7753 7.81973 14.5502 7.81973C16.3484 7.81973 17.4811 8.67213 17.4811 10.0149ZM13.1723 13.5998C13.1723 14.2888 13.6628 14.6742 14.5619 14.6742C15.461 14.6742 15.9631 14.3006 15.9631 13.5998C15.9631 12.9227 15.461 12.5372 14.5619 12.5372C13.6627 12.5372 13.1723 12.9226 13.1723 13.5998ZM13.3825 10.1317C13.3825 10.7157 13.8029 11.0425 14.5619 11.0425C15.3208 11.0425 15.7412 10.7156 15.7412 10.1317C15.7412 9.52467 15.3208 9.18598 14.5619 9.18598C13.8028 9.18598 13.3825 9.52467 13.3825 10.1317Z" fill="#A2D9F6"/>
<path d="M21.3729 8.82552C21.7185 9.8454 21.8937 10.9121 21.8937 12.0001C21.8937 17.4554 17.4554 21.8938 12 21.8938C6.54463 21.8938 2.10625 17.4554 2.10625 12.0001C2.10625 6.54463 6.54455 2.10647 12 2.10647C13.0881 2.10647 14.1548 2.28162 15.1746 2.62732V0.425614C14.1445 0.143258 13.0807 0 12 0C5.38323 0 0 5.38324 0 12.0001C0 18.617 5.38323 24.0002 12 24.0002C18.6168 24.0002 24 18.617 24 12.0001C24 10.9195 23.8568 9.85562 23.5745 8.82552H21.3729V8.82552Z" fill="#A2D9F6"/>
<path d="M20.773 3.21917V0.918213H19.1185V3.21917H16.8313V4.87361H19.1185V7.1745H20.773V4.87361H23.0738V3.21917H20.773Z" fill="#A2D9F6"/>
</svg>
