<svg width="18" height="14" viewBox="0 0 18 14" fill="none" xmlns="http://www.w3.org/2000/svg">
<path d="M17.8418 1.57611L12.3828 6.99998L17.8418 12.4238C17.9405 12.2176 18.0004 11.9896 18.0004 11.7461V2.25389C18.0004 2.01036 17.9405 1.78237 17.8418 1.57611Z" fill="#0A1633"/>
<path d="M16.418 0.671875H1.58207C1.33855 0.671875 1.11056 0.731746 0.904297 0.83043L7.88151 7.77249C8.49843 8.38941 9.50165 8.38941 10.1186 7.77249L17.0958 0.83043C16.8895 0.731746 16.6615 0.671875 16.418 0.671875Z" fill="#0A1633"/>
<path d="M0.158555 1.57611C0.0598711 1.78237 0 2.01036 0 2.25389V11.7461C0 11.9896 0.0598711 12.2176 0.158555 12.4238L5.61758 6.99998L0.158555 1.57611Z" fill="#0A1633"/>
<path d="M11.6368 7.74573L10.8643 8.51822C9.83634 9.54615 8.16371 9.54615 7.13578 8.51822L6.36332 7.74573L0.904297 13.1696C1.11056 13.2683 1.33855 13.3281 1.58207 13.3281H16.418C16.6615 13.3281 16.8895 13.2683 17.0958 13.1696L11.6368 7.74573Z" fill="#0A1633"/>
</svg>
