<svg width="18" height="13" viewBox="0 0 18 13" fill="none" xmlns="http://www.w3.org/2000/svg">
<path d="M17.8418 0.904236L12.3828 6.3281L17.8418 11.752C17.9405 11.5457 18.0004 11.3177 18.0004 11.0742V1.58201C18.0004 1.33849 17.9405 1.1105 17.8418 0.904236Z" fill="white"/>
<path d="M16.418 0H1.58207C1.33855 0 1.11056 0.0598712 0.904297 0.158555L7.88151 7.10061C8.49843 7.71754 9.50165 7.71754 10.1186 7.10061L17.0958 0.158555C16.8895 0.0598712 16.6615 0 16.418 0Z" fill="white"/>
<path d="M0.158555 0.904236C0.0598711 1.1105 0 1.33849 0 1.58201V11.0742C0 11.3177 0.0598711 11.5457 0.158555 11.752L5.61758 6.3281L0.158555 0.904236Z" fill="white"/>
<path d="M11.6368 7.07382L10.8643 7.84631C9.83634 8.87424 8.16371 8.87424 7.13578 7.84631L6.36332 7.07382L0.904297 12.4977C1.11056 12.5964 1.33855 12.6562 1.58207 12.6562H16.418C16.6615 12.6562 16.8895 12.5964 17.0958 12.4977L11.6368 7.07382Z" fill="white"/>
</svg>
