<svg width="16" height="23" viewBox="0 0 16 23" fill="none" xmlns="http://www.w3.org/2000/svg">
<path d="M7.99979 0.0396729C3.60645 0.0396729 0.0322266 3.64714 0.0322266 8.08129C0.0322266 13.5842 7.16242 21.6628 7.46599 22.004C7.75113 22.3246 8.24897 22.324 8.53359 22.004C8.83717 21.6628 15.9674 13.5842 15.9674 8.08129C15.9673 3.64714 12.3931 0.0396729 7.99979 0.0396729ZM7.99979 12.1273C5.78939 12.1273 3.99115 10.3122 3.99115 8.08129C3.99115 5.85034 5.78944 4.03537 7.99979 4.03537C10.2101 4.03537 12.0084 5.85038 12.0084 8.08133C12.0084 10.3123 10.2101 12.1273 7.99979 12.1273Z" fill="white"/>
</svg>
