<svg width="408" height="85" viewBox="0 0 408 85" fill="none" xmlns="http://www.w3.org/2000/svg">
<path d="M262.55 55.175C262.55 56.669 262.55 58.163 262.55 59.632C262.55 65.48 262.52 67.207 262.58 73.055C262.6 74.601 262.73 76.146 263.04 77.64C263.4 79.547 264.49 80.397 266.42 80.5C267.53 80.552 267.89 81.093 267.92 82.097C267.99 84.545 267.66 84.802 265.18 84.776C259.74 84.725 254.29 84.802 248.85 84.828C248.02 84.828 247.02 85.189 246.78 83.823C246.42 81.711 246.76 80.861 248.31 80.552C250.58 80.114 251.71 78.8 251.79 76.533C251.87 74.369 252 72.205 252 70.041C252.02 49.4571 252.02 32.9941 252 12.4105C252 11.0966 251.79 9.7828 251.58 8.4947C251.3 6.8459 250.24 5.96999 248.62 5.66089C248.05 5.55779 247.09 5.32599 247.02 4.99109C246.81 4.08939 246.84 3.0847 247.04 2.1831C247.12 1.8997 248.02 1.64209 248.56 1.64209C252.64 1.59049 256.74 1.64209 260.82 1.59049C261.85 1.59049 262.21 2.02849 262.21 2.95589C262.21 4.39859 262.21 5.81549 262.24 7.25809C262.24 7.82489 262.24 8.39159 262.24 8.95839C262.34 8.98419 262.47 9.00989 262.58 9.00989C262.76 8.59769 262.96 8.21129 263.14 7.79909C264.74 4.55309 266.99 1.87389 270.63 0.946493C275.22 -0.238507 279.01 1.43599 282.06 4.91379C284.28 7.43849 285.7 10.4526 286.6 13.6728C289.05 22.303 289.28 31.0362 287.68 39.8724C286.75 45.1021 285.15 50.0741 282.29 54.557C280.74 56.978 278.86 59.142 276.17 60.43C272.82 62.053 266.4 61.332 264.1 57.03C263.74 56.36 263.3 55.742 262.91 55.098C262.73 55.123 262.63 55.149 262.55 55.175ZM262.58 32.0666C262.55 32.0666 262.55 32.0666 262.58 32.0666C262.55 35.9567 262.5 39.8724 262.58 43.7625C262.63 46.7766 263.61 49.5331 265.41 51.9547C266.21 53.037 267.25 53.861 268.67 54.041C270.88 54.351 272.12 53.449 273.49 51.1303C275.09 48.4253 275.71 45.3854 276.17 42.3198C277.44 33.87 277.52 25.3944 276.3 16.9445C275.99 14.7805 275.3 12.7454 274.19 10.839C272.18 7.43849 267.99 7.61879 266.11 10.5299C263.89 13.9562 262.55 17.5628 262.58 21.6847C262.6 25.1367 262.58 28.5888 262.58 32.0666Z" fill="#A2D9F6"/>
<path d="M173.606 1.71928C176.392 1.71928 179.205 1.74508 181.992 1.69358C182.972 1.66778 183.463 2.05419 183.488 3.00739C183.514 3.59989 183.488 4.19239 183.488 4.75919C183.488 5.50629 183.101 5.91849 182.43 6.09879C180.598 6.56249 179.747 7.87638 179.695 9.65388C179.541 14.7547 179.437 19.8556 179.36 24.9821C179.334 26.2702 179.644 26.5278 180.96 26.5278C183.695 26.5536 186.404 26.5536 189.139 26.5794C190.146 26.6051 190.61 26.2187 190.61 25.1625C190.584 20.783 190.584 16.4035 190.559 12.0498C190.559 11.0966 190.378 10.1434 190.249 9.21598C190.042 7.61878 189.32 6.51098 187.643 6.04728C186.559 5.76388 186.301 4.57888 186.636 2.80128C186.817 1.77078 187.565 1.66779 188.391 1.66779C194.016 1.69359 199.667 1.71928 205.292 1.71928C206.324 1.71928 206.789 2.15728 206.712 3.18768C206.712 3.29078 206.712 3.41958 206.712 3.52258C206.582 6.15028 207.047 5.63509 204.544 6.20189C202.944 6.56249 201.886 7.41268 201.757 9.13868C201.602 10.942 201.37 12.7196 201.37 14.5229C201.344 25.9096 201.37 37.322 201.396 48.7087C201.396 49.9452 201.499 51.2076 201.68 52.4441C201.989 54.582 203.022 55.51 205.138 55.819C206.763 56.051 206.815 56.128 206.712 57.777C206.608 60.07 206.608 60.095 204.209 60.095C198.97 60.121 193.758 60.121 188.52 60.095C186.662 60.095 186.585 59.992 186.611 58.163C186.611 57.803 186.482 57.39 186.585 57.081C186.714 56.695 186.972 56.128 187.282 56.025C189.913 55.278 190.481 53.14 190.533 50.9499C190.636 44.999 190.533 39.048 190.533 33.0971C190.533 32.2469 190.12 31.9378 189.32 31.912C186.482 31.912 183.643 31.8863 180.805 31.8605C180.108 31.8605 179.695 32.1954 179.566 32.8652C179.515 33.2001 179.489 33.5093 179.489 33.8442C179.489 38.9192 179.489 43.9943 179.515 49.0693C179.515 50.3059 179.67 51.5682 179.824 52.8048C180.005 54.299 180.882 55.329 182.301 55.767C183.359 56.102 183.643 56.746 183.617 57.751C183.617 60.018 183.643 60.121 181.373 60.121C175.851 60.147 170.329 60.044 164.807 59.992C163.749 59.992 163.233 59.58 163.336 58.472C163.388 58.009 163.362 57.519 163.388 57.03C163.439 56.386 163.749 56.051 164.42 55.999C167.232 55.742 168.058 54.402 168.497 51.7743C168.703 50.5635 168.626 49.2754 168.626 48.0389C168.626 36.137 168.626 24.2093 168.6 12.3074C168.6 11.6118 168.548 10.9163 168.471 10.2207C168.187 8.08248 167.232 6.53678 164.91 6.04728C163.439 5.73818 162.665 3.41958 163.646 2.26028C163.929 1.92538 164.626 1.77079 165.116 1.77079C167.929 1.69359 170.767 1.71928 173.606 1.71928Z" fill="#A2D9F6"/>
<path d="M360.45 32.6076C360.45 39.5118 360.45 46.4417 360.45 53.346C360.45 54.814 360.53 54.866 362.02 54.866C362.95 54.866 363.85 54.866 364.78 54.814C365.71 54.763 366.13 55.226 366.18 56.102C366.23 57.055 366.31 58.009 366.33 58.962C366.43 63.29 366.54 67.618 366.64 71.972C366.67 72.822 366.41 73.543 365.61 73.878C365.07 74.11 364.42 74.29 363.88 74.187C363.65 74.135 363.49 73.337 363.42 72.873C362.85 70.194 362.62 67.386 361.69 64.836C360.45 61.358 358.41 60.018 354.85 60.095C348.73 60.224 342.62 60.198 336.5 60.095C333.33 60.044 331.21 61.924 330.23 65.016C329.41 67.644 329.1 70.452 328.5 73.182C328.4 73.646 328.17 74.393 327.94 74.419C327.42 74.47 326.7 74.29 326.36 73.929C325.92 73.414 325.51 72.641 325.54 71.997C325.61 66.716 325.79 61.409 325.92 56.128C325.95 55.407 326.28 55.046 326.96 54.917C329.54 54.428 330.88 52.5729 331.88 50.4347C334.52 44.7672 335.44 38.7132 335.63 32.5303C335.83 25.8838 335.78 19.2373 335.78 12.565C335.78 11.3542 335.65 10.1434 335.5 8.9326C335.29 7.4642 334.34 6.6141 332.92 6.2276C330.83 5.6866 330.23 4.7592 330.75 2.5695C330.83 2.2346 331.52 1.8224 331.94 1.7966C333.59 1.6936 335.24 1.7451 336.92 1.7451C345.97 1.7451 355.03 1.7451 364.09 1.7193C365.07 1.7193 365.53 2.1058 365.58 3.0332C365.61 3.4711 365.63 3.9091 365.69 4.347C365.79 5.2745 365.38 5.867 364.45 5.9443C361.82 6.2276 360.68 7.8506 360.53 10.3238C360.42 11.8952 360.37 13.4667 360.37 15.0639C360.35 20.9118 360.37 26.7597 360.37 32.6076C360.42 32.6076 360.45 32.6076 360.45 32.6076ZM349.79 31.0619C349.77 31.0619 349.71 31.0619 349.69 31.0619C349.69 28.563 349.69 26.0642 349.69 23.5653C349.69 18.4902 349.66 13.4152 349.66 8.3401C349.66 7.5415 349.38 7.0778 348.53 7.1035C346.2 7.1551 343.88 7.1808 341.56 7.2323C340.68 7.2581 340.3 7.6188 340.3 8.5977C340.27 18.1038 340.22 27.6356 340.09 37.1417C340.01 42.8865 339.5 48.5799 337.28 53.99C336.92 54.891 337.46 54.891 338.08 54.891C341.46 54.891 344.84 54.891 348.24 54.917C349.69 54.917 349.79 54.814 349.79 53.346C349.79 45.9007 349.79 38.4813 349.79 31.0619Z" fill="#A2D9F6"/>
<path d="M94.9311 51.0272C94.3371 52.0319 93.641 52.9851 93.125 54.041C91.112 58.292 86.2091 60.868 81.6421 59.889C79.9651 59.529 78.546 58.653 77.565 57.133C74.469 52.3153 73.669 47.163 74.546 41.5469C74.933 39.0738 75.475 36.781 76.585 34.5397C78.185 31.3453 80.765 29.1813 83.758 27.4295C86.829 25.652 90.235 24.9049 93.744 24.6988C94.75 24.6473 95.112 24.2093 95.086 23.2561C95.008 19.701 94.9831 16.1201 94.8791 12.565C94.8281 10.4783 92.867 6.97471 89.925 6.69131C88.222 6.53681 86.6481 7.25811 85.5641 8.59771C84.3521 10.0404 83.474 11.7149 83.216 13.6212C83.165 14.0592 83.036 14.4971 82.829 14.8836C82.52 15.5534 82.003 15.811 81.307 15.3988C79.707 14.4971 78.081 13.6212 76.507 12.6938C75.553 12.1271 75.475 10.8132 76.146 9.55091C77.694 6.63981 80.017 4.55311 82.881 2.90441C86.777 0.663114 90.906 0.457015 95.034 1.66781C99.24 2.90441 102.13 5.81551 103.653 9.98881C105.278 14.4456 105.717 19.057 105.691 23.7456C105.691 31.4741 105.665 39.1769 105.743 46.9054C105.768 48.2965 106.13 49.7134 106.568 51.053C107.007 52.4184 108.013 52.5987 108.968 51.5167C109.768 50.5893 110.413 49.5073 111.058 48.4253C111.548 47.6009 112.735 47.1372 113.561 47.6267C113.742 47.7297 113.922 48.1419 113.845 48.3223C112.787 51.1303 111.806 53.938 109.974 56.411C107.291 60.07 104.117 60.559 100.117 59.812C99.189 59.632 98.26 58.73 97.666 57.931C96.479 56.283 95.86 54.325 95.679 52.2896C95.653 51.9547 95.55 51.594 95.473 51.2591C95.266 51.156 95.0861 51.0788 94.9311 51.0272ZM94.983 36.5749C94.957 36.5749 94.9311 36.5749 94.9051 36.5749C94.9051 34.6686 94.9311 32.7622 94.8791 30.8558C94.8791 30.5982 94.415 30.1087 94.183 30.1345C90.648 30.4694 87.5251 31.6287 85.6421 34.9262C83.5771 38.5843 83.294 42.4743 84.506 46.4159C85.668 50.1771 88.97 51.0272 91.964 48.348C93.899 46.5962 94.931 44.3807 94.983 41.7273C94.983 40.027 94.983 38.301 94.983 36.5749Z" fill="white"/>
<path d="M228.387 51.0272C227.793 52.0319 227.096 52.9851 226.58 54.041C224.568 58.292 219.665 60.868 215.098 59.889C213.421 59.529 212.001 58.653 211.021 57.133C207.924 52.3153 207.124 47.163 208.002 41.5469C208.389 39.0738 208.931 36.781 210.04 34.5397C211.64 31.3453 214.22 29.1813 217.214 27.4295C220.284 25.652 223.69 24.9049 227.225 24.6988C228.232 24.6473 228.593 24.2093 228.567 23.2561C228.49 19.701 228.464 16.1201 228.361 12.565C228.309 10.4783 226.348 6.97471 223.406 6.69131C221.703 6.53681 220.129 7.25811 219.046 8.59771C217.833 10.0404 216.956 11.7149 216.698 13.6212C216.646 14.0592 216.517 14.4971 216.311 14.8836C216.001 15.5534 215.485 15.811 214.788 15.3988C213.188 14.4971 211.563 13.6212 209.989 12.6938C209.034 12.1271 208.957 10.8132 209.627 9.55091C211.176 6.63981 213.498 4.55311 216.362 2.90441C220.258 0.663114 224.387 0.457015 228.516 1.66781C232.722 2.90441 235.612 5.81551 237.134 9.98881C238.76 14.4456 239.198 19.057 239.172 23.7456C239.172 31.4741 239.147 39.1769 239.224 46.9054C239.25 48.2965 239.611 49.7134 240.05 51.053C240.488 52.4184 241.495 52.5987 242.449 51.5167C243.249 50.5893 243.894 49.5073 244.54 48.4253C245.03 47.6009 246.22 47.1372 247.04 47.6267C247.22 47.7297 247.4 48.1419 247.33 48.3223C246.27 51.1303 245.29 53.938 243.456 56.411C240.772 60.07 237.598 60.559 233.599 59.812C232.67 59.632 231.741 58.73 231.148 57.931C229.961 56.283 229.341 54.325 229.161 52.2896C229.135 51.9547 229.032 51.594 228.954 51.2591C228.722 51.156 228.567 51.0788 228.387 51.0272ZM228.438 36.5749C228.412 36.5749 228.387 36.5749 228.361 36.5749C228.361 34.6686 228.387 32.7622 228.335 30.8558C228.335 30.5982 227.87 30.1087 227.638 30.1345C224.103 30.4694 220.981 31.6287 219.097 34.9262C217.033 38.5843 216.749 42.4743 217.962 46.4159C219.123 50.1771 222.426 51.0272 225.419 48.348C227.354 46.5962 228.387 44.3807 228.438 41.7273C228.464 40.027 228.438 38.301 228.438 36.5749Z" fill="#A2D9F6"/>
<path d="M388.45 51.0272C387.85 52.0319 387.15 52.9851 386.64 54.041C384.63 58.292 379.72 60.868 375.16 59.889C373.48 59.529 372.06 58.653 371.08 57.133C367.98 52.3153 367.18 47.163 368.06 41.5469C368.45 39.0738 368.99 36.781 370.1 34.5397C371.7 31.3453 374.28 29.1813 377.27 27.4295C380.34 25.652 383.75 24.9049 387.28 24.6988C388.29 24.6473 388.65 24.2093 388.63 23.2561C388.55 19.701 388.52 16.1201 388.42 12.565C388.37 10.4783 386.41 6.97471 383.47 6.69131C381.76 6.53681 380.19 7.25811 379.1 8.59771C377.89 10.0404 377.01 11.7149 376.76 13.6212C376.7 14.0592 376.58 14.4971 376.37 14.8836C376.06 15.5534 375.54 15.811 374.85 15.3988C373.25 14.4971 371.62 13.6212 370.05 12.6938C369.09 12.1271 369.02 10.8132 369.69 9.55091C371.23 6.63981 373.56 4.55311 376.42 2.90441C380.32 0.663114 384.45 0.457015 388.57 1.66781C392.78 2.90441 395.67 5.81551 397.19 9.98881C398.82 14.4456 399.26 19.057 399.23 23.7456C399.23 31.4741 399.21 39.1769 399.28 46.9054C399.31 48.2965 399.67 49.7134 400.11 51.053C400.55 52.4184 401.55 52.5987 402.51 51.5167C403.31 50.5893 403.95 49.5073 404.6 48.4253C405.09 47.6009 406.28 47.1372 407.1 47.6267C407.28 47.7297 407.46 48.1419 407.38 48.3223C406.33 51.1303 405.35 53.938 403.51 56.411C400.83 60.07 397.66 60.559 393.66 59.812C392.73 59.632 391.8 58.73 391.21 57.931C390.02 56.283 389.4 54.325 389.22 52.2896C389.19 51.9547 389.09 51.594 389.01 51.2591C388.78 51.156 388.63 51.0788 388.45 51.0272ZM388.5 36.5749C388.47 36.5749 388.45 36.5749 388.42 36.5749C388.42 34.6686 388.45 32.7622 388.39 30.8558C388.39 30.5982 387.93 30.1087 387.7 30.1345C384.16 30.4694 381.04 31.6287 379.16 34.9262C377.09 38.5843 376.81 42.4743 378.02 46.4159C379.18 50.1771 382.48 51.0272 385.48 48.348C387.41 46.5962 388.45 44.3807 388.5 41.7273C388.52 40.027 388.5 38.301 388.5 36.5749Z" fill="#A2D9F6"/>
<path d="M327.94 32.8137C327.99 36.6007 327.21 41.2378 325.74 45.7203C324.5 49.5073 322.72 53.037 320.12 56.128C314.75 62.491 305.51 62.491 300.38 56.592C297.64 53.449 295.71 49.9452 294.39 46.0295C291.68 37.9918 291.4 29.7738 292.79 21.5301C293.85 15.27 296.15 9.37061 300.64 4.68191C305.93 -0.882594 314.05 -0.444593 319.01 4.42431C322.62 7.97941 324.61 12.3332 326.05 17.0733C327.55 21.9165 328.04 26.837 327.94 32.8137ZM316.69 30.9074C316.69 30.3921 316.69 29.8769 316.69 29.3616C316.81 24.132 316.58 18.9282 315.63 13.7758C315.21 11.483 314.36 9.39631 312.82 7.64451C311.89 6.58831 310.73 6.22761 309.33 6.51101C307.4 6.89741 306.34 8.23701 305.62 9.93731C303.99 13.8273 303.55 17.975 303.45 22.1226C303.29 28.1509 303.24 34.1791 303.47 40.2073C303.6 43.4533 304.3 46.6735 304.95 49.868C305.2 51.1303 305.82 52.3926 306.57 53.449C308.35 55.948 311.37 55.973 313.31 53.603C314.88 51.6713 315.29 49.3012 315.76 46.9569C316.79 41.65 316.69 36.2915 316.69 30.9074Z" fill="#A2D9F6"/>
<path d="M55.1161 1.51319C60.4571 1.51319 65.799 1.48749 71.14 1.53899C71.708 1.53899 72.714 1.74509 72.791 2.02849C72.998 2.95589 72.92 3.96059 72.869 4.93959C72.869 5.09409 72.3531 5.24869 72.0431 5.35169C71.4751 5.50629 70.8821 5.60939 70.3401 5.76389C68.9721 6.20189 68.198 7.10349 68.095 8.57199C67.966 10.6844 67.734 12.8226 67.708 14.9351C67.656 26.296 67.682 37.6569 67.708 49.0178C67.708 50.0483 67.863 51.053 67.915 52.0835C68.018 54.479 69.592 55.432 71.63 55.948C72.843 56.257 73.591 58.137 72.791 59.039C72.533 59.322 71.94 59.451 71.501 59.451C68.147 59.477 64.792 59.451 61.438 59.451C59.038 59.451 56.664 59.426 54.265 59.426C53.594 59.426 52.923 59.451 52.742 58.55C52.484 57.184 52.665 56.231 53.542 55.973C55.916 55.304 56.638 53.655 56.664 51.3879C56.69 48.0389 56.845 44.6898 56.845 41.3666C56.896 30.8043 56.896 20.2678 56.922 9.70549C56.922 7.07779 56.896 7.02619 54.316 7.00049C52.303 6.97469 50.265 6.97469 48.252 7.00049C46.936 7.00049 46.549 7.41269 46.549 8.72649C46.549 15.2958 46.627 21.8907 46.523 28.46C46.42 33.7411 46.2141 39.048 45.7751 44.3034C45.4661 47.807 44.795 51.3106 43.195 54.505C41.647 57.596 39.582 60.173 35.763 60.198C34.525 60.198 33.26 59.76 32.074 59.348C31.274 59.065 31.067 58.344 31.248 57.442C32.074 53.526 32.796 49.6103 33.648 45.6946C33.751 45.2308 34.267 44.5353 34.654 44.4838C38.473 44.02 39.402 41.0575 40.279 38.0949C42.369 31.0619 42.318 23.7971 42.447 16.5838C42.498 13.9819 42.3431 11.38 42.1371 8.77799C42.0081 6.92319 40.718 5.76389 38.886 5.40329C38.318 5.30019 37.389 5.06839 37.312 4.73349C37.157 3.88329 37.26 2.90439 37.466 2.05419C37.544 1.79659 38.318 1.59049 38.782 1.59049C44.227 1.56479 49.6711 1.56479 55.1161 1.56479C55.1161 1.56479 55.1161 1.53899 55.1161 1.51319Z" fill="white"/>
<path d="M113.509 32.3243C113.587 24.9307 114.593 19.3661 116.89 14.1107C118.851 9.62822 121.534 5.66092 125.792 3.00742C131.262 -0.418882 139.055 -0.0839832 144.164 3.90912C146.022 5.37752 147.596 7.23242 149.247 8.90692C149.892 9.57672 149.892 10.3238 149.428 11.1224C148.473 12.6938 147.621 14.3168 146.589 15.8368C146.28 16.3005 145.583 16.7384 145.041 16.7642C144.68 16.79 144.164 16.1201 143.906 15.6564C142.693 13.5182 141.79 11.1997 140.345 9.24182C138.048 6.12462 134.797 6.02162 131.752 7.97942C130.694 8.64922 129.946 9.88582 129.198 10.942C127.34 13.5697 126.772 16.6869 126.205 19.7525C124.914 26.7855 124.889 33.8957 126.05 40.9287C126.669 44.5611 127.753 48.142 129.894 51.2849C132.243 54.763 136.397 55.587 140.216 53.372C142.229 52.1865 143.828 50.6151 145.093 48.683C145.893 47.4722 146.357 47.3949 147.673 48.0389C147.879 48.142 148.06 48.2192 148.267 48.3223C149.505 48.9148 149.815 49.5589 149.066 50.7697C147.492 53.243 145.944 55.767 143.39 57.442C137.971 60.997 132.243 61.667 126.282 59.039C124.037 58.06 122.153 56.463 120.683 54.505C117.56 50.3575 115.496 45.7204 114.619 40.5938C114.077 37.2963 113.742 33.973 113.509 32.3243Z" fill="white"/>
<path d="M5.28995 30.624C5.28995 24.2609 5.28995 17.8977 5.28995 11.5603C5.28995 10.5041 5.21198 9.42209 5.10898 8.36589C4.95398 6.69139 3.767 5.55779 2.09 5.40329C0.386999 5.24869 -0.465031 3.80609 0.283969 2.26029C0.438969 1.95119 0.954951 1.69359 1.31595 1.64209C2.11595 1.53899 2.941 1.56479 3.741 1.56479C12.205 1.56479 20.668 1.56479 29.132 1.61629C32.048 1.61629 32.099 1.69359 32.151 4.57889C32.228 9.16449 32.254 13.7501 32.306 18.3614C32.306 18.5418 32.306 18.7221 32.306 18.9024C32.203 19.7526 32.151 20.6284 30.99 20.7315C29.777 20.8345 29.777 19.9071 29.622 19.1343C29.209 16.9703 28.8739 14.8063 28.3579 12.6681C28.1259 11.6891 27.584 10.7617 27.094 9.86009C25.958 7.82489 24.126 6.79439 21.881 6.58829C20.436 6.45949 18.94 6.56259 17.469 6.61409C16.488 6.63979 16.05 7.23239 16.05 8.21129C16.075 21.2983 16.075 34.3852 16.127 47.4464C16.127 49.1724 16.462 50.8727 16.643 52.5987C16.798 54.196 17.753 55.175 19.172 55.767C20.514 56.334 21.107 57.725 20.385 58.962C20.178 59.323 19.456 59.529 18.991 59.529C13.831 59.58 8.69595 59.554 3.53495 59.554C2.86395 59.554 2.21895 59.554 1.54795 59.58C0.721946 59.58 0.206 59.219 0.103 58.395C-1.63913e-07 57.519 -0.10301 56.566 0.95499 56.128C1.57399 55.87 2.21899 55.69 2.83799 55.51C4.25699 55.123 4.95398 54.093 5.13498 52.7275C5.26398 51.8259 5.31497 50.8985 5.31497 49.971C5.28997 43.4791 5.28995 37.0387 5.28995 30.624Z" fill="white"/>
</svg>
