<svg width="174" height="45" viewBox="0 0 174 45" fill="none" xmlns="http://www.w3.org/2000/svg">
<g clip-path="url(#clip0)">
<path d="M0 0.0437012H0.650323V1.68339L0.639301 2.12357L0.617256 2.61878H0.628278L2.19346 0.0437012H3.05321V3.43312H2.41391V1.81544C2.41391 1.59535 2.42493 1.27622 2.458 0.847036H2.43596L0.870772 3.43312H0V0.0437012Z" fill="white"/>
<path d="M6.70166 3.43336H5.9852V1.98075H4.64047V3.44436H3.92401V0.0439453H4.64047V1.3755H5.9852V0.0439453H6.70166V3.43336Z" fill="white"/>
<path d="M8.86225 3.43336H8.14579V0.649198H7.21991V0.0439453H9.78814V0.638193H8.86225V3.43336V3.43336Z" fill="white"/>
<path d="M12.2676 3.43336H10.3056V0.0439453H12.2566V0.638193H11.0221V1.3865H12.1684V1.98075H11.0221V2.85011H12.2566V3.43336H12.2676Z" fill="white"/>
<path d="M15.321 1.11139C15.321 1.47454 15.2108 1.76066 14.9793 1.94774C14.7478 2.14582 14.4282 2.23386 14.0093 2.23386H13.7007V3.44436H12.9843V0.0439453H14.0645C14.4723 0.0439453 14.7919 0.131982 15.0014 0.308055C15.2108 0.495133 15.321 0.759243 15.321 1.11139ZM13.6897 1.63961H13.9212C14.1416 1.63961 14.3069 1.59559 14.4172 1.50756C14.5274 1.41952 14.5825 1.29847 14.5825 1.12239C14.5825 0.957326 14.5384 0.825271 14.4392 0.748239C14.351 0.671207 14.2077 0.627188 14.0093 0.627188H13.6787V1.63961H13.6897Z" fill="white"/>
<path d="M18.7383 3.43336H18.0219V1.98075H16.6772V3.44436H15.9607V0.0439453H16.6772V1.3755H18.0219V0.0439453H18.7383V3.43336Z" fill="white"/>
<path d="M21.5489 3.43336H19.5979V0.0439453H21.5489V0.638193H20.3144V1.3865H21.4607V1.98075H20.3144V2.85011H21.5489V3.43336Z" fill="white"/>
<path d="M23.5765 3.43336H22.8601V0.649198H21.9342V0.0439453H24.5024V0.638193H23.5765V3.43336Z" fill="white"/>
<path d="M24.7346 2.45409V1.87085H25.9801V2.45409H24.7346Z" fill="white"/>
<path d="M28.6913 0.0439453V0.638193H27.2694V3.43336H26.553V0.0439453H28.6913Z" fill="white"/>
<path d="M31.293 3.43338L31.0505 2.63004H29.816L29.5735 3.43338H28.8019L30.0034 0.032959H30.8852L32.0756 3.43338H31.293ZM30.8742 2.02479C30.6427 1.29849 30.5214 0.880313 30.4884 0.781271C30.4553 0.68223 30.4443 0.605198 30.4222 0.550175C30.3671 0.748257 30.2238 1.23246 29.9813 2.01379H30.8742V2.02479Z" fill="white"/>
<path d="M34.842 0.836367C34.842 1.05646 34.7649 1.23253 34.6105 1.37559C34.4562 1.51865 34.2468 1.60669 33.9823 1.65071V1.66171C34.2909 1.69473 34.5334 1.78276 34.6987 1.91482C34.8641 2.05788 34.9522 2.23395 34.9522 2.46505C34.9522 2.77318 34.831 3.02628 34.5775 3.20235C34.324 3.37843 33.9712 3.47747 33.5304 3.47747C33.0343 3.47747 32.6265 3.41144 32.3289 3.29039V2.68514C32.4722 2.75117 32.6486 2.80619 32.8359 2.85021C33.0343 2.89423 33.2107 2.90523 33.3871 2.90523C33.9602 2.90523 34.2468 2.74016 34.2468 2.41002C34.2468 2.25596 34.1586 2.14591 33.9712 2.06888C33.7839 1.99185 33.5193 1.94783 33.1556 1.94783H32.8359V1.3866H33.1225C33.4863 1.3866 33.7398 1.35358 33.9051 1.28756C34.0704 1.22153 34.1476 1.11148 34.1476 0.946413C34.1476 0.825363 34.0925 0.737326 33.9933 0.671298C33.8941 0.605271 33.7398 0.572257 33.5304 0.572257C33.2107 0.572257 32.9021 0.660294 32.6045 0.847372L32.2958 0.36317C32.4942 0.231115 32.6926 0.143078 32.9131 0.0770504C33.1335 0.0110229 33.376 -0.0109863 33.6406 -0.0109863C34.0153 -0.0109863 34.3019 0.0660458 34.5224 0.22011C34.7318 0.385179 34.842 0.594266 34.842 0.836367Z" fill="white"/>
<path d="M37.5315 3.43336H35.5806V0.0439453H37.5315V0.638193H36.297V1.3865H37.4434V1.98075H36.297V2.85011H37.5315V3.43336Z" fill="white"/>
<path d="M39.5484 3.43336H38.8319V0.649198H37.9061V0.0439453H40.4743V0.638193H39.5484V3.43336V3.43336Z" fill="white"/>
<path d="M43.0757 3.43338L42.8332 2.63004H41.5987L41.3562 3.43338H40.5847L41.7861 0.032959H42.6679L43.8693 3.43338H43.0757ZM42.6569 2.02479C42.4254 1.29849 42.3041 0.880313 42.2711 0.781271C42.238 0.68223 42.227 0.605198 42.2049 0.550175C42.1498 0.748257 42.0065 1.23246 41.7641 2.01379H42.6569V2.02479Z" fill="white"/>
<path d="M112.153 29.9764C112.153 30.6147 112.153 31.2529 112.153 31.8802C112.153 34.3782 112.142 35.1161 112.164 37.6142C112.175 38.2744 112.23 38.9347 112.362 39.573C112.517 40.3873 112.98 40.7505 113.806 40.7945C114.28 40.8165 114.435 41.0476 114.446 41.4768C114.479 42.5222 114.335 42.6323 113.277 42.6213C110.952 42.5992 108.626 42.6323 106.3 42.6433C105.947 42.6433 105.518 42.7973 105.418 42.2141C105.264 41.3117 105.407 40.9486 106.069 40.8165C107.039 40.6294 107.524 40.0682 107.557 39.0998C107.59 38.1754 107.645 37.251 107.645 36.3266C107.656 27.534 107.656 20.5015 107.645 11.7088C107.645 11.1476 107.557 10.5863 107.468 10.0361C107.347 9.3318 106.895 8.95764 106.201 8.82559C105.958 8.78157 105.551 8.68253 105.518 8.53947C105.429 8.15431 105.44 7.72513 105.529 7.33997C105.562 7.21892 105.947 7.10887 106.179 7.10887C107.92 7.08686 109.673 7.10887 111.415 7.08686C111.855 7.08686 112.01 7.27394 112.01 7.6701C112.01 8.28636 112.01 8.89161 112.021 9.50787C112.021 9.74997 112.021 9.99207 112.021 10.2342C112.065 10.2452 112.12 10.2562 112.164 10.2562C112.241 10.0801 112.329 9.91504 112.407 9.73897C113.09 8.35239 114.049 7.20791 115.603 6.81175C117.565 6.30553 119.185 7.02083 120.486 8.50645C121.434 9.5849 122.04 10.8724 122.426 12.248C123.473 15.9346 123.572 19.6651 122.889 23.4397C122.492 25.6736 121.809 27.7975 120.585 29.7123C119.924 30.7467 119.119 31.6711 117.973 32.2213C116.54 32.9146 113.795 32.6065 112.814 30.7687C112.66 30.4826 112.473 30.2185 112.307 29.9434C112.23 29.9544 112.186 29.9654 112.153 29.9764ZM112.164 20.1053C112.153 20.1053 112.153 20.1053 112.164 20.1053C112.153 21.767 112.131 23.4397 112.164 25.1014C112.186 26.3889 112.605 27.5664 113.377 28.6008C113.718 29.063 114.159 29.4152 114.765 29.4922C115.713 29.6243 116.242 29.2391 116.827 28.2487C117.51 27.0932 117.774 25.7947 117.973 24.4851C118.513 20.8756 118.546 17.2551 118.028 13.6456C117.896 12.7212 117.598 11.8518 117.124 11.0375C116.264 9.5849 114.479 9.66193 113.674 10.9055C112.726 12.3691 112.153 13.9097 112.164 15.6704C112.175 17.1451 112.164 18.6197 112.164 20.1053Z" fill="#A2D9F6"/>
<path d="M74.1594 7.14188C75.3498 7.14188 76.5513 7.15289 77.7417 7.13088C78.1605 7.11987 78.37 7.28494 78.381 7.69211C78.392 7.94522 78.381 8.19832 78.381 8.44042C78.381 8.75956 78.2156 8.93563 77.9291 9.01266C77.1465 9.21075 76.7827 9.77198 76.7607 10.5313C76.6946 12.7102 76.6505 14.8891 76.6174 17.079C76.6064 17.6293 76.7386 17.7393 77.3008 17.7393C78.4692 17.7503 79.6265 17.7503 80.7949 17.7613C81.2248 17.7723 81.4232 17.6072 81.4232 17.1561C81.4122 15.2853 81.4122 13.4145 81.4011 11.5547C81.4011 11.1476 81.324 10.7404 81.2689 10.3442C81.1807 9.66193 80.8721 9.18874 80.1556 8.99065C79.6927 8.8696 79.5824 8.36339 79.7257 7.60408C79.8029 7.16389 80.1225 7.11987 80.4752 7.11987C82.8781 7.13088 85.292 7.14188 87.6949 7.14188C88.1358 7.14188 88.3342 7.32896 88.3012 7.76914C88.3012 7.81316 88.3012 7.86819 88.3012 7.9122C88.246 9.03467 88.4445 8.81458 87.3753 9.05668C86.6919 9.21075 86.24 9.5739 86.1849 10.3112C86.1187 11.0815 86.0195 11.8408 86.0195 12.6112C86.0085 17.4752 86.0195 22.3502 86.0305 27.2143C86.0305 27.7425 86.0746 28.2817 86.1518 28.8099C86.2841 29.7233 86.725 30.1195 87.6288 30.2515C88.3232 30.3506 88.3452 30.3836 88.3012 31.0879C88.2571 32.0673 88.2571 32.0783 87.232 32.0783C84.9944 32.0893 82.7679 32.0893 80.5304 32.0783C79.7367 32.0783 79.7037 32.0343 79.7147 31.2529C79.7147 31.0989 79.6596 30.9228 79.7037 30.7907C79.7588 30.6257 79.869 30.3836 80.0013 30.3396C81.1256 30.0204 81.3681 29.107 81.3901 28.1717C81.4342 25.6296 81.3901 23.0875 81.3901 20.5455C81.3901 20.1823 81.2137 20.0503 80.8721 20.0393C79.6596 20.0393 78.4471 20.0283 77.2347 20.0173C76.9371 20.0173 76.7607 20.1603 76.7056 20.4464C76.6835 20.5895 76.6725 20.7215 76.6725 20.8646C76.6725 23.0325 76.6725 25.2004 76.6835 27.3683C76.6835 27.8965 76.7497 28.4358 76.8158 28.964C76.893 29.6023 77.2677 30.0424 77.874 30.2295C78.3259 30.3726 78.4471 30.6477 78.4361 31.0769C78.4361 32.0453 78.4471 32.0893 77.4772 32.0893C75.1184 32.1003 72.7596 32.0563 70.4008 32.0343C69.9488 32.0343 69.7284 31.8582 69.7725 31.385C69.7945 31.1869 69.7835 30.9778 69.7945 30.7687C69.8166 30.4936 69.9488 30.3506 70.2354 30.3286C71.4369 30.2185 71.7896 29.6463 71.977 28.5238C72.0651 28.0066 72.0321 27.4564 72.0321 26.9281C72.0321 21.844 72.0321 16.7489 72.0211 11.6648C72.0211 11.3676 71.999 11.0705 71.9659 10.7734C71.8447 9.86002 71.4369 9.19974 70.4448 8.99065C69.8166 8.8586 69.4859 7.86819 69.9048 7.37298C70.026 7.22992 70.3236 7.16389 70.533 7.16389C71.7345 7.13088 72.9469 7.14188 74.1594 7.14188Z" fill="#A2D9F6"/>
<path d="M153.972 20.3366C153.972 23.2858 153.972 26.2461 153.972 29.1953C153.972 29.8225 154.006 29.8446 154.645 29.8446C155.042 29.8446 155.427 29.8446 155.824 29.8225C156.221 29.8005 156.397 29.9986 156.419 30.3728C156.441 30.7799 156.475 31.1871 156.486 31.5943C156.53 33.4431 156.574 35.2918 156.618 37.1516C156.629 37.5148 156.519 37.8229 156.177 37.9659C155.945 38.065 155.67 38.142 155.438 38.098C155.339 38.076 155.273 37.7348 155.24 37.5368C154.998 36.3923 154.898 35.1928 154.502 34.1033C153.972 32.6177 153.102 32.0455 151.581 32.0785C148.968 32.1335 146.356 32.1225 143.744 32.0785C142.388 32.0565 141.484 32.8598 141.065 34.1804C140.713 35.3028 140.58 36.5023 140.327 37.6688C140.283 37.8669 140.183 38.186 140.084 38.197C139.864 38.219 139.555 38.142 139.412 37.988C139.224 37.7679 139.048 37.4377 139.059 37.1626C139.092 34.9067 139.169 32.6397 139.224 30.3838C139.236 30.0757 139.379 29.9216 139.665 29.8666C140.768 29.6575 141.341 28.8651 141.771 27.9518C142.895 25.5308 143.292 22.9447 143.369 20.3036C143.457 17.4644 143.435 14.6252 143.435 11.775C143.435 11.2578 143.38 10.7406 143.314 10.2234C143.226 9.59611 142.818 9.23296 142.212 9.06789C141.319 8.8368 141.065 8.44063 141.286 7.50524C141.319 7.36218 141.616 7.18611 141.793 7.1751C142.498 7.13108 143.204 7.15309 143.92 7.15309C147.789 7.15309 151.658 7.15309 155.527 7.14209C155.945 7.14209 156.144 7.30716 156.166 7.70332C156.177 7.8904 156.188 8.07748 156.21 8.26456C156.254 8.66072 156.078 8.91383 155.681 8.94684C154.557 9.06789 154.072 9.76118 154.006 10.8176C153.961 11.4889 153.939 12.1602 153.939 12.8425C153.928 15.3405 153.939 17.8386 153.939 20.3366C153.961 20.3366 153.972 20.3366 153.972 20.3366ZM149.42 19.6763C149.409 19.6763 149.387 19.6763 149.376 19.6763C149.376 18.6089 149.376 17.5414 149.376 16.474C149.376 14.3061 149.365 12.1382 149.365 9.97027C149.365 9.62913 149.244 9.43104 148.88 9.44205C147.888 9.46406 146.896 9.47506 145.904 9.49707C145.529 9.50808 145.364 9.66214 145.364 10.0803C145.353 14.141 145.331 18.2127 145.276 22.2734C145.243 24.7274 145.022 27.1594 144.074 29.4704C143.92 29.8556 144.151 29.8556 144.416 29.8556C145.86 29.8556 147.304 29.8556 148.759 29.8666C149.376 29.8666 149.42 29.8225 149.42 29.1953C149.42 26.015 149.42 22.8456 149.42 19.6763Z" fill="#A2D9F6"/>
<path d="M40.5514 28.2048C40.2979 28.6339 40.0003 29.0411 39.7799 29.4923C38.9201 31.308 36.8259 32.4085 34.8749 31.9903C34.1584 31.8363 33.5522 31.4621 33.1333 30.8128C31.8106 28.755 31.469 26.5541 31.8437 24.1551C32.009 23.0986 32.2405 22.1192 32.7145 21.1618C33.3979 19.7972 34.5001 18.8729 35.7787 18.1246C37.0904 17.3652 38.5454 17.0461 40.0444 16.9581C40.4743 16.9361 40.6286 16.749 40.6176 16.3418C40.5845 14.8232 40.5735 13.2935 40.5294 11.7749C40.5073 10.8835 39.6696 9.38691 38.4131 9.26586C37.6856 9.19983 37.0132 9.50796 36.5503 10.0802C36.0322 10.6965 35.6575 11.4118 35.5473 12.2261C35.5252 12.4132 35.4701 12.6002 35.3819 12.7653C35.2496 13.0514 35.0292 13.1615 34.7316 12.9854C34.0482 12.6002 33.3538 12.2261 32.6814 11.8299C32.2736 11.5878 32.2405 11.0266 32.5271 10.4874C33.1885 9.24385 34.1805 8.35248 35.404 7.64819C37.0683 6.69079 38.8319 6.60275 40.5955 7.11997C42.3922 7.64819 43.6267 8.8917 44.277 10.6744C44.9714 12.5782 45.1588 14.5481 45.1478 16.5509C45.1478 19.8523 45.1368 23.1426 45.1698 26.444C45.1809 27.0383 45.3352 27.6435 45.5226 28.2158C45.7099 28.799 46.1398 28.876 46.5476 28.4138C46.8893 28.0177 47.1649 27.5555 47.4405 27.0933C47.6499 26.7411 48.1569 26.5431 48.5096 26.7521C48.5868 26.7962 48.6639 26.9722 48.6309 27.0493C48.179 28.2488 47.7601 29.4483 46.9775 30.5047C45.8312 32.0674 44.4754 32.2764 42.7669 31.9573C42.3701 31.8803 41.9733 31.4951 41.7198 31.154C41.2128 30.4497 40.9482 29.6133 40.8711 28.744C40.8601 28.6009 40.816 28.4469 40.7829 28.3038C40.6947 28.2598 40.6176 28.2268 40.5514 28.2048ZM40.5735 22.0312C40.5625 22.0312 40.5514 22.0312 40.5404 22.0312C40.5404 21.2168 40.5514 20.4025 40.5294 19.5882C40.5294 19.4781 40.331 19.269 40.2318 19.28C38.7217 19.4231 37.388 19.9183 36.5834 21.3269C35.7016 22.8895 35.5803 24.5512 36.0984 26.2349C36.5944 27.8416 38.0053 28.2048 39.2839 27.0603C40.1105 26.312 40.5514 25.3656 40.5735 24.2321C40.5735 23.5058 40.5735 22.7685 40.5735 22.0312Z" fill="white"/>
<path d="M97.5596 28.2048C97.306 28.6339 97.0084 29.0411 96.788 29.4923C95.9282 31.308 93.834 32.4085 91.883 31.9903C91.1665 31.8363 90.5603 31.4621 90.1415 30.8128C88.8188 28.755 88.4771 26.5541 88.8518 24.1551C89.0172 23.0986 89.2486 22.1192 89.7226 21.1618C90.406 19.7972 91.5082 18.8729 92.7868 18.1246C94.0985 17.3652 95.5535 17.0461 97.0635 16.9581C97.4934 16.9361 97.6477 16.749 97.6367 16.3418C97.6036 14.8232 97.5926 13.2935 97.5485 11.7749C97.5265 10.8835 96.6888 9.38691 95.4322 9.26586C94.7047 9.19983 94.0324 9.50796 93.5694 10.0802C93.0514 10.6965 92.6766 11.4118 92.5664 12.2261C92.5443 12.4132 92.4892 12.6002 92.4011 12.7653C92.2688 13.0514 92.0483 13.1615 91.7507 12.9854C91.0673 12.6002 90.3729 12.2261 89.7006 11.8299C89.2927 11.5878 89.2597 11.0266 89.5462 10.4874C90.2076 9.24385 91.1996 8.35248 92.4231 7.64819C94.0875 6.69079 95.8511 6.60275 97.6147 7.11997C99.4113 7.64819 100.646 8.8917 101.296 10.6744C101.991 12.5782 102.178 14.5481 102.167 16.5509C102.167 19.8523 102.156 23.1426 102.189 26.444C102.2 27.0383 102.354 27.6435 102.542 28.2158C102.729 28.799 103.159 28.876 103.567 28.4138C103.908 28.0177 104.184 27.5555 104.46 27.0933C104.669 26.7411 105.176 26.5431 105.529 26.7521C105.606 26.7962 105.683 26.9722 105.65 27.0493C105.198 28.2488 104.779 29.4483 103.997 30.5047C102.85 32.0674 101.495 32.2764 99.7861 31.9573C99.3893 31.8803 98.9925 31.4951 98.739 31.154C98.2319 30.4497 97.9674 29.6133 97.8902 28.744C97.8792 28.6009 97.8351 28.4469 97.802 28.3038C97.7028 28.2598 97.6367 28.2268 97.5596 28.2048ZM97.5816 22.0312C97.5706 22.0312 97.5596 22.0312 97.5485 22.0312C97.5485 21.2168 97.5596 20.4025 97.5375 19.5882C97.5375 19.4781 97.3391 19.269 97.2399 19.28C95.7298 19.4231 94.3961 19.9183 93.5915 21.3269C92.7097 22.8895 92.5884 24.5512 93.1065 26.2349C93.6025 27.8416 95.0134 28.2048 96.292 27.0603C97.1187 26.312 97.5596 25.3656 97.5816 24.2321C97.5926 23.5058 97.5816 22.7685 97.5816 22.0312Z" fill="#A2D9F6"/>
<path d="M165.932 28.2048C165.678 28.6339 165.38 29.0411 165.16 29.4923C164.3 31.308 162.206 32.4085 160.255 31.9903C159.538 31.8363 158.932 31.4621 158.513 30.8128C157.191 28.755 156.849 26.5541 157.224 24.1551C157.389 23.0986 157.621 22.1192 158.095 21.1618C158.778 19.7972 159.88 18.8729 161.159 18.1246C162.47 17.3652 163.925 17.0461 165.435 16.9581C165.865 16.9361 166.02 16.749 166.009 16.3418C165.976 14.8232 165.965 13.2935 165.92 11.7749C165.898 10.8835 165.061 9.38691 163.804 9.26586C163.077 9.19983 162.404 9.50796 161.941 10.0802C161.423 10.6965 161.049 11.4118 160.938 12.2261C160.916 12.4132 160.861 12.6002 160.773 12.7653C160.641 13.0514 160.42 13.1615 160.123 12.9854C159.439 12.6002 158.745 12.2261 158.073 11.8299C157.665 11.5878 157.632 11.0266 157.918 10.4874C158.58 9.24385 159.572 8.35248 160.795 7.64819C162.459 6.69079 164.223 6.60275 165.987 7.11997C167.783 7.64819 169.018 8.8917 169.668 10.6744C170.363 12.5782 170.55 14.5481 170.539 16.5509C170.539 19.8523 170.528 23.1426 170.561 26.444C170.572 27.0383 170.726 27.6435 170.914 28.2158C171.101 28.799 171.531 28.876 171.939 28.4138C172.28 28.0177 172.556 27.5555 172.832 27.0933C173.041 26.7411 173.548 26.5431 173.901 26.7521C173.978 26.7962 174.055 26.9722 174.022 27.0493C173.57 28.2488 173.151 29.4483 172.369 30.5047C171.222 32.0674 169.867 32.2764 168.158 31.9573C167.761 31.8803 167.364 31.4951 167.111 31.154C166.604 30.4497 166.339 29.6133 166.262 28.744C166.251 28.6009 166.207 28.4469 166.174 28.3038C166.075 28.2598 166.009 28.2268 165.932 28.2048ZM165.954 22.0312C165.943 22.0312 165.932 22.0312 165.92 22.0312C165.92 21.2168 165.931 20.4025 165.909 19.5882C165.909 19.4781 165.711 19.269 165.612 19.28C164.102 19.4231 162.768 19.9183 161.963 21.3269C161.082 22.8895 160.96 24.5512 161.478 26.2349C161.974 27.8416 163.385 28.2048 164.664 27.0603C165.491 26.312 165.931 25.3656 165.954 24.2321C165.965 23.5058 165.954 22.7685 165.954 22.0312Z" fill="#A2D9F6"/>
<path d="M140.084 20.4246C140.106 22.0423 139.775 24.0231 139.147 25.9379C138.618 27.5556 137.858 29.0632 136.744 30.3838C134.452 33.1019 130.506 33.1019 128.312 30.5819C127.144 29.2393 126.317 27.7427 125.755 26.07C124.598 22.6366 124.476 19.1261 125.071 15.6046C125.523 12.9305 126.504 10.4105 128.422 8.40762C130.682 6.03063 134.154 6.21771 136.27 8.29758C137.813 9.81621 138.662 11.676 139.279 13.7008C139.919 15.7697 140.128 17.8716 140.084 20.4246ZM135.278 19.6103C135.278 19.3902 135.278 19.1701 135.278 18.95C135.333 16.7161 135.234 14.4932 134.826 12.2922C134.65 11.3128 134.286 10.4215 133.625 9.67315C133.228 9.22196 132.732 9.0679 132.137 9.18895C131.31 9.35402 130.858 9.92626 130.55 10.6526C129.855 12.3143 129.668 14.086 129.624 15.8577C129.558 18.4328 129.536 21.0079 129.635 23.583C129.69 24.9695 129.988 26.3451 130.263 27.7097C130.373 28.2489 130.638 28.7881 130.957 29.2393C131.718 30.3068 133.008 30.3178 133.834 29.3053C134.507 28.48 134.683 27.4676 134.881 26.4662C135.322 24.1992 135.278 21.9103 135.278 19.6103Z" fill="#A2D9F6"/>
<path d="M23.5438 7.05402C25.8254 7.05402 28.1071 7.04302 30.3887 7.06503C30.6312 7.06503 31.0611 7.15306 31.0942 7.27411C31.1823 7.67028 31.1493 8.09946 31.1272 8.51763C31.1272 8.58366 30.9068 8.64969 30.7745 8.6937C30.532 8.75973 30.2785 8.80375 30.047 8.86978C29.4628 9.05686 29.1322 9.44202 29.0881 10.0693C29.033 10.9717 28.9338 11.885 28.9227 12.7874C28.9007 17.6404 28.9117 22.4935 28.9227 27.3465C28.9227 27.7867 28.9889 28.2158 29.0109 28.656C29.055 29.6795 29.7274 30.0866 30.5982 30.3067C31.1162 30.4388 31.4359 31.2421 31.0942 31.6273C30.9839 31.7483 30.7304 31.8033 30.543 31.8033C29.1101 31.8143 27.6772 31.8033 26.2443 31.8033C25.2192 31.8033 24.2051 31.7923 23.1801 31.7923C22.8935 31.7923 22.6069 31.8033 22.5297 31.4182C22.4195 30.8349 22.4967 30.4278 22.8714 30.3177C23.8855 30.0316 24.1941 29.3273 24.2051 28.3589C24.2162 26.9283 24.2823 25.4977 24.2823 24.0781C24.3044 19.5662 24.3044 15.0654 24.3154 10.5535C24.3154 9.43101 24.3044 9.409 23.2021 9.398C22.3424 9.38699 21.4716 9.38699 20.6118 9.398C20.0497 9.398 19.8844 9.57407 19.8844 10.1353C19.8844 12.9415 19.9174 15.7586 19.8733 18.5648C19.8292 20.8208 19.7411 23.0877 19.5537 25.3326C19.4214 26.8293 19.1348 28.3259 18.4514 29.6905C17.7901 31.011 16.9083 32.1115 15.277 32.1225C14.7479 32.1225 14.2078 31.9354 13.7008 31.7593C13.3591 31.6383 13.2709 31.3301 13.3481 30.945C13.7008 29.2723 14.0094 27.5996 14.3731 25.9269C14.4172 25.7288 14.6377 25.4317 14.803 25.4097C16.4343 25.2116 16.8311 23.9461 17.2059 22.6805C18.0987 19.6763 18.0767 16.573 18.1318 13.4917C18.1538 12.3802 18.0877 11.2688 17.9995 10.1573C17.9444 9.36498 17.3933 8.86978 16.6107 8.71571C16.3682 8.67169 15.9714 8.57265 15.9383 8.42959C15.8722 8.06644 15.9163 7.64827 16.0045 7.28512C16.0375 7.17507 16.3682 7.08703 16.5666 7.08703C18.8923 7.07603 21.2181 7.07603 23.5438 7.07603C23.5438 7.07603 23.5438 7.06503 23.5438 7.05402Z" fill="white"/>
<path d="M48.4876 20.2154C48.5207 17.0571 48.9506 14.6801 49.9315 12.4351C50.7693 10.5203 51.9156 8.82563 53.7343 7.69215C56.071 6.22854 59.3998 6.3716 61.5823 8.07732C62.3759 8.70458 63.0482 9.49691 63.7537 10.2122C64.0292 10.4983 64.0292 10.8175 63.8308 11.1586C63.423 11.8299 63.0593 12.5232 62.6184 13.1724C62.4861 13.3705 62.1885 13.5576 61.957 13.5686C61.8027 13.5796 61.5823 13.2935 61.472 13.0954C60.954 12.182 60.5682 11.1916 59.9509 10.3553C58.9699 9.02371 57.5811 8.97969 56.2805 9.81604C55.8285 10.1022 55.5089 10.6304 55.1892 11.0816C54.3956 12.204 54.1531 13.5356 53.9106 14.8451C53.3595 17.8494 53.3485 20.8867 53.8445 23.8909C54.109 25.4426 54.572 26.9722 55.4869 28.3148C56.4899 29.8004 58.2645 30.1525 59.8958 29.2061C60.7556 28.6999 61.439 28.0286 61.9791 27.2033C62.3208 26.6861 62.5192 26.6531 63.0813 26.9282C63.1695 26.9722 63.2466 27.0052 63.3348 27.0492C63.8639 27.3023 63.9962 27.5775 63.6765 28.0947C63.0042 29.1511 62.3428 30.2296 61.2516 30.9449C58.9369 32.4635 56.4899 32.7496 53.9437 31.6271C52.9848 31.209 52.1801 30.5267 51.5518 29.6903C50.2181 27.9186 49.3363 25.9378 48.9616 23.7479C48.7301 22.3393 48.5868 20.9197 48.4876 20.2154Z" fill="white"/>
<path d="M2.25916 19.4891C2.25916 16.771 2.25916 14.0528 2.25916 11.3457C2.25916 10.8945 2.2261 10.4323 2.18201 9.98114C2.11587 9.26584 1.60884 8.78164 0.892383 8.71561C0.164903 8.64959 -0.198837 8.03333 0.120813 7.37305C0.186948 7.241 0.407396 7.13095 0.56171 7.10894C0.903405 7.06492 1.25612 7.07593 1.59782 7.07593C5.21317 7.07593 8.82853 7.07593 12.4439 7.09794C13.6894 7.09794 13.7115 7.13095 13.7335 8.36347C13.7666 10.3223 13.7776 12.2811 13.7996 14.2509C13.7996 14.328 13.7996 14.405 13.7996 14.482C13.7556 14.8452 13.7335 15.2193 13.2375 15.2633C12.7194 15.3074 12.7194 14.9112 12.6533 14.5811C12.477 13.6567 12.3337 12.7323 12.1132 11.8189C12.014 11.4007 11.7825 11.0046 11.5731 10.6194C11.0881 9.75005 10.3055 9.30986 9.34658 9.22183C8.72933 9.1668 8.09003 9.21082 7.46175 9.23283C7.0429 9.24383 6.85551 9.49694 6.85551 9.91511C6.86654 15.5054 6.86654 21.0958 6.88858 26.6751C6.88858 27.4124 7.03187 28.1387 7.10903 28.876C7.17517 29.5583 7.583 29.9765 8.18923 30.2296C8.76239 30.4717 9.01591 31.0659 8.70728 31.5942C8.6191 31.7482 8.31047 31.8363 8.11207 31.8363C5.90759 31.8583 3.71412 31.8473 1.50964 31.8473C1.22306 31.8473 0.947495 31.8473 0.660912 31.8583C0.308195 31.8583 0.087746 31.7042 0.0436563 31.3521C-0.000433359 30.9779 -0.044523 30.5707 0.407396 30.3837C0.671935 30.2736 0.947495 30.1966 1.21203 30.1196C1.81827 29.9545 2.11587 29.5143 2.19303 28.9311C2.24814 28.5459 2.27019 28.1497 2.27019 27.7536C2.25916 24.9804 2.25916 22.2293 2.25916 19.4891Z" fill="white"/>
<path d="M103.567 3.4441H102.85V1.98049H101.506V3.4441H100.789V0.0546875H101.506V1.38624H102.85V0.0546875H103.567V3.4441Z" fill="#A2D9F6"/>
<path d="M106.51 3.44436L106.256 2.64103H105.021L104.779 3.44436H104.007L105.209 0.0439453H106.091L107.292 3.44436H106.51ZM106.091 2.03578C105.859 1.30947 105.738 0.891298 105.705 0.792257C105.672 0.693216 105.661 0.616184 105.639 0.561161C105.584 0.759243 105.44 1.24345 105.198 2.02477H106.091V2.03578Z" fill="#A2D9F6"/>
<path d="M110.048 1.11137C110.048 1.47452 109.938 1.76064 109.706 1.94772C109.475 2.1458 109.155 2.23384 108.736 2.23384H108.427V3.44434H107.711V0.0549316H108.791C109.199 0.0549316 109.519 0.142968 109.728 0.319042C109.949 0.495115 110.048 0.759225 110.048 1.11137ZM108.427 1.6506H108.659C108.879 1.6506 109.045 1.60658 109.155 1.51854C109.265 1.4305 109.32 1.30945 109.32 1.13338C109.32 0.968312 109.276 0.836257 109.177 0.759225C109.089 0.682193 108.945 0.638175 108.747 0.638175H108.416V1.6506H108.427Z" fill="#A2D9F6"/>
<path d="M113.773 1.73872C113.773 2.29996 113.63 2.72914 113.355 3.03727C113.079 3.33439 112.671 3.48845 112.153 3.48845C111.635 3.48845 111.238 3.33439 110.952 3.03727C110.676 2.74014 110.533 2.29996 110.533 1.73872C110.533 1.17749 110.676 0.748312 110.952 0.451188C111.227 0.154064 111.635 0 112.153 0C112.671 0 113.079 0.154064 113.355 0.451188C113.63 0.748312 113.773 1.17749 113.773 1.73872ZM111.293 1.73872C111.293 2.11288 111.371 2.399 111.514 2.59708C111.657 2.78416 111.878 2.8832 112.164 2.8832C112.737 2.8832 113.024 2.49804 113.024 1.73872C113.024 0.979408 112.737 0.594248 112.164 0.594248C111.878 0.594248 111.657 0.693289 111.514 0.880367C111.371 1.07845 111.293 1.36457 111.293 1.73872Z" fill="#A2D9F6"/>
<path d="M114.071 2.8501H114.335C114.556 2.39891 114.732 1.95873 114.864 1.50754C114.997 1.05635 115.096 0.572147 115.151 0.0549316H117.135V2.8501H117.587V4.43476H116.892V3.44435H114.765V4.43476H114.071V2.8501ZM115.735 0.649179C115.691 1.00133 115.603 1.37548 115.493 1.77165C115.382 2.16781 115.25 2.51996 115.107 2.83909H116.43V0.649179H115.735Z" fill="#A2D9F6"/>
<path d="M117.962 3.11418C117.962 2.98213 117.995 2.88309 118.062 2.81706C118.128 2.75103 118.238 2.71802 118.37 2.71802C118.503 2.71802 118.602 2.75103 118.668 2.81706C118.734 2.88309 118.778 2.98213 118.778 3.11418C118.778 3.23523 118.745 3.33427 118.668 3.4003C118.602 3.46633 118.503 3.51035 118.37 3.51035C118.238 3.51035 118.139 3.47733 118.073 3.41131C117.995 3.33427 117.962 3.23523 117.962 3.11418Z" fill="#A2D9F6"/>
<path d="M123.793 1.73872C123.793 2.29996 123.65 2.72914 123.374 3.03727C123.098 3.33439 122.691 3.48845 122.173 3.48845C121.655 3.48845 121.258 3.33439 120.971 3.03727C120.696 2.74014 120.552 2.29996 120.552 1.73872C120.552 1.17749 120.696 0.748312 120.971 0.451188C121.247 0.154064 121.655 0 122.173 0C122.691 0 123.098 0.154064 123.374 0.451188C123.65 0.748312 123.793 1.17749 123.793 1.73872ZM121.313 1.73872C121.313 2.11288 121.39 2.399 121.533 2.59708C121.677 2.78416 121.897 2.8832 122.184 2.8832C122.757 2.8832 123.043 2.49804 123.043 1.73872C123.043 0.979408 122.757 0.594248 122.184 0.594248C121.897 0.594248 121.677 0.693289 121.533 0.880367C121.379 1.07845 121.313 1.36457 121.313 1.73872Z" fill="#A2D9F6"/>
<path d="M125.215 1.35347H125.501C125.942 1.35347 126.284 1.44151 126.526 1.61758C126.769 1.79366 126.89 2.04676 126.89 2.3769C126.89 3.08119 126.427 3.43334 125.49 3.43334H124.498V0.0549316H126.648V0.64918H125.215V1.35347ZM125.215 2.8501H125.457C125.7 2.8501 125.876 2.80608 125.986 2.72905C126.096 2.65201 126.152 2.53096 126.152 2.3769C126.152 2.22284 126.096 2.11279 125.975 2.03576C125.865 1.96973 125.667 1.93672 125.38 1.93672H125.193V2.8501H125.215Z" fill="#A2D9F6"/>
<path d="M130.02 2.8501H131.079V0.0549316H131.795V2.87211H132.302V4.43476H131.608V3.44435H127.529V0.0549316H128.246V2.8501H129.304V0.0549316H130.031V2.8501H130.02Z" fill="#A2D9F6"/>
<path d="M134.783 3.44434H132.821V0.0549316H134.772V0.649179H133.537V1.39749H134.683V1.98073H133.537V2.8501H134.772V3.44434H134.783Z" fill="#A2D9F6"/>
<path d="M136.932 0.605216C136.656 0.605216 136.447 0.704257 136.304 0.913344C136.16 1.11143 136.083 1.39755 136.083 1.7607C136.083 2.52001 136.37 2.89417 136.932 2.89417C137.175 2.89417 137.461 2.83915 137.803 2.7181V3.32335C137.527 3.4444 137.208 3.49942 136.866 3.49942C136.37 3.49942 135.995 3.34536 135.731 3.04823C135.466 2.75111 135.334 2.32193 135.334 1.7607C135.334 1.40855 135.4 1.10042 135.521 0.836312C135.642 0.572202 135.83 0.363115 136.072 0.23106C136.315 0.0990048 136.59 0.0219727 136.921 0.0219727C137.252 0.0219727 137.582 0.0990048 137.913 0.264074L137.682 0.847317C137.549 0.792294 137.428 0.737271 137.296 0.693253C137.164 0.649234 137.053 0.605216 136.932 0.605216Z" fill="#A2D9F6"/>
<path d="M139.831 3.44434H139.114V0.649179H138.188V0.0549316H140.757V0.649179H139.831V3.44434V3.44434Z" fill="#A2D9F6"/>
<path d="M141.275 0.0549316H142.333C142.818 0.0549316 143.159 0.120959 143.38 0.264019C143.6 0.396074 143.711 0.616166 143.711 0.913289C143.711 1.11137 143.667 1.28745 143.567 1.4085C143.468 1.54055 143.347 1.61758 143.193 1.63959V1.6616C143.413 1.70562 143.567 1.80466 143.655 1.92571C143.755 2.05777 143.799 2.23384 143.799 2.45393C143.799 2.76206 143.689 3.00416 143.468 3.18023C143.248 3.35631 142.939 3.44434 142.553 3.44434H141.286V0.0549316H141.275ZM141.991 1.39749H142.41C142.608 1.39749 142.752 1.36448 142.829 1.30945C142.917 1.25443 142.961 1.14439 142.961 1.01233C142.961 0.880276 142.917 0.792239 142.818 0.737216C142.719 0.682193 142.575 0.649179 142.366 0.649179H141.991V1.39749ZM141.991 1.96973V2.8501H142.465C142.663 2.8501 142.807 2.81708 142.906 2.74005C143.005 2.66302 143.049 2.55297 143.049 2.3879C143.049 2.10178 142.851 1.96973 142.443 1.96973H141.991Z" fill="#A2D9F6"/>
<path d="M147.546 1.73872C147.546 2.29996 147.403 2.72914 147.128 3.03727C146.852 3.33439 146.444 3.48845 145.926 3.48845C145.408 3.48845 145.011 3.33439 144.725 3.03727C144.449 2.74014 144.306 2.29996 144.306 1.73872C144.306 1.17749 144.449 0.748312 144.725 0.451188C145 0.154064 145.408 0 145.926 0C146.444 0 146.852 0.154064 147.128 0.451188C147.403 0.748312 147.546 1.17749 147.546 1.73872ZM145.077 1.73872C145.077 2.11288 145.155 2.399 145.298 2.59708C145.441 2.78416 145.662 2.8832 145.948 2.8832C146.521 2.8832 146.808 2.49804 146.808 1.73872C146.808 0.979408 146.521 0.594248 145.948 0.594248C145.662 0.594248 145.441 0.693289 145.298 0.880367C145.143 1.07845 145.077 1.36457 145.077 1.73872Z" fill="#A2D9F6"/>
<path d="M148.098 3.11418C148.098 2.98213 148.131 2.88309 148.197 2.81706C148.263 2.75103 148.373 2.71802 148.505 2.71802C148.638 2.71802 148.737 2.75103 148.803 2.81706C148.869 2.88309 148.913 2.98213 148.913 3.11418C148.913 3.23523 148.88 3.33427 148.803 3.4003C148.737 3.46633 148.638 3.51035 148.505 3.51035C148.373 3.51035 148.274 3.47733 148.208 3.41131C148.131 3.33427 148.098 3.23523 148.098 3.11418Z" fill="#A2D9F6"/>
<path d="M150.842 0.0549316H151.9C152.385 0.0549316 152.726 0.120959 152.947 0.264019C153.167 0.396074 153.278 0.616166 153.278 0.913289C153.278 1.11137 153.233 1.28745 153.134 1.4085C153.035 1.54055 152.914 1.61758 152.76 1.63959V1.6616C152.98 1.70562 153.134 1.80466 153.222 1.92571C153.322 2.05777 153.366 2.23384 153.366 2.45393C153.366 2.76206 153.256 3.00416 153.035 3.18023C152.815 3.35631 152.506 3.44434 152.12 3.44434H150.853V0.0549316H150.842ZM151.569 1.39749H151.988C152.186 1.39749 152.33 1.36448 152.407 1.30945C152.495 1.25443 152.539 1.14439 152.539 1.01233C152.539 0.880276 152.495 0.792239 152.396 0.737216C152.297 0.682193 152.153 0.649179 151.944 0.649179H151.569V1.39749ZM151.569 1.96973V2.8501H152.043C152.241 2.8501 152.385 2.81708 152.484 2.74005C152.583 2.66302 152.627 2.55297 152.627 2.3879C152.627 2.10178 152.429 1.96973 152.021 1.96973H151.569Z" fill="#A2D9F6"/>
<path d="M156.728 3.44438H156.011V0.649216H155.185L155.151 0.957345C155.052 1.74967 154.975 2.2999 154.898 2.61904C154.821 2.93817 154.722 3.15826 154.578 3.29032C154.435 3.42237 154.248 3.4884 154.005 3.4774C153.873 3.4774 153.763 3.45539 153.663 3.42237V2.82813C153.752 2.86114 153.84 2.87214 153.917 2.87214C153.994 2.87214 154.06 2.83913 154.115 2.7621C154.159 2.68507 154.204 2.55301 154.248 2.34392C154.292 2.14584 154.347 1.8047 154.413 1.34251C154.479 0.880312 154.545 0.440129 154.589 0.032959H156.728V3.44438Z" fill="#A2D9F6"/>
<path d="M159.66 3.44436L159.418 2.64103H158.183L157.941 3.44436H157.169L158.37 0.0439453H159.252L160.454 3.44436H159.66ZM159.241 2.03578C159.01 1.30947 158.888 0.891298 158.855 0.792257C158.822 0.693216 158.811 0.616184 158.789 0.561161C158.734 0.759243 158.591 1.24345 158.348 2.02477H159.241V2.03578Z" fill="#A2D9F6"/>
<path d="M162.305 0.605216C162.03 0.605216 161.82 0.704257 161.677 0.913344C161.534 1.11143 161.456 1.39755 161.456 1.7607C161.456 2.52001 161.743 2.89417 162.305 2.89417C162.548 2.89417 162.834 2.83915 163.176 2.7181V3.32335C162.9 3.4444 162.581 3.49942 162.239 3.49942C161.743 3.49942 161.368 3.34536 161.104 3.04823C160.839 2.75111 160.707 2.32193 160.707 1.7607C160.707 1.40855 160.773 1.10042 160.894 0.836312C161.015 0.572202 161.203 0.363115 161.445 0.23106C161.688 0.0880002 161.963 0.0219727 162.294 0.0219727C162.625 0.0219727 162.955 0.0990048 163.286 0.264074L163.055 0.847317C162.922 0.792294 162.801 0.737271 162.669 0.693253C162.537 0.649234 162.437 0.605216 162.305 0.605216Z" fill="#A2D9F6"/>
<path d="M165.204 3.44434H164.487V0.649179H163.561V0.0549316H166.13V0.649179H165.204V3.44434V3.44434Z" fill="#A2D9F6"/>
<path d="M169.04 2.3879C169.04 3.0922 168.577 3.44434 167.64 3.44434H166.648V0.0549316H167.365V1.35347H167.651C168.092 1.35347 168.434 1.44151 168.676 1.61758C168.919 1.80466 169.04 2.05777 169.04 2.3879ZM167.376 2.8501H167.618C167.861 2.8501 168.037 2.80608 168.147 2.72905C168.257 2.65201 168.313 2.53096 168.313 2.3769C168.313 2.22284 168.257 2.11279 168.136 2.03576C168.026 1.96973 167.828 1.93672 167.541 1.93672H167.354V2.8501H167.376Z" fill="#A2D9F6"/>
</g>
<defs>
<clipPath id="clip0">
<rect width="174" height="44.4255" fill="white"/>
</clipPath>
</defs>
</svg>
